<svg width="104" height="66" viewBox="0 0 104 66" fill="none" stroke="currentColor" xmlns="http://www.w3.org/2000/svg">
<path d="M27.8848 57.622V39.4108L41.429 27.1348L55.2269 39.2586V57.4698H44.8278V47.02H38.1825V57.5713L27.8848 57.622Z" fill="none" stroke="currentColor" stroke-width="2" stroke-linejoin="round"/>
<path d="M1 62.0896C4.35718 60.3994 7.72694 59.6751 11.247 59.2995C15.3553 58.8612 19.5177 59.5061 23.6245 59.959C27.8852 60.4289 32.034 61.7413 36.3063 62.0896C40.7894 62.455 45.3807 62.8765 49.7999 62.0388C55.557 60.9475 62.0088 59.1208 64.3587 53.06C65.5475 49.9938 64.9705 46.502 65.5761 43.2696C67.8488 31.1401 75.1308 20.9342 79.932 20.5437C81.7808 20.3933 84.0677 26.8774 71.7142 28.5079C70.041 28.7288 68.4103 27.4892 67.0979 26.4281C63.9404 23.8751 62.3108 15.6228 66.337 14.4564C68.3553 13.8717 69.0994 18.0096 69.124 20.1107C69.1696 24.0065 67.0782 28.0831 64.2034 30.7128C62.2682 32.483 59.3271 34.0805 56.8003 33.3778C55.2909 32.958 56.341 30.3964 55.4306 29.2688C54.0328 27.5376 49.7221 30.0123 48.8868 27.9499C48.0241 25.8198 50.6104 22.9887 52.7928 22.2684C55.5603 21.355 59.0214 23.0279 61.0614 25.1092C64.1569 28.2675 64.1658 33.4361 65.1196 37.7403" fill="none" stroke="currentColor" stroke-width="2" stroke-linecap="round" stroke-linejoin="round"/>
<path d="M48.4808 22.7232C44.2544 23.0186 43.4694 18.0711 48.5316 15.7228C47.0677 9.63027 53.2993 12.3051 53.6043 11.8675C54.9866 9.88494 50.7616 4.09353 59.4887 7.20061C61.8551 8.04309 61.2232 2.86783 64.0856 1.61773C73.6878 -2.57573 74.8269 16.0975 70.6488 12.1719C63.8926 5.82407 88.0883 -1.73655 82.4176 14.5054C81.8552 16.116 86.4525 13.5305 87.8874 15.8968C89.4569 18.4849 85.6692 20.6632 86.1714 21.3536C87.2999 22.9052 90.3079 23.1093 90.4391 25.6261C90.5703 28.1428 88.1292 32.5666 84.3452 32.2093C88.4989 40.1654 79.216 36.9684 74.707 35.7602C70.4307 34.6144 67.2721 41.9633 68.1694 46.3026C70.6992 58.5373 70.5525 66.2719 65.2716 64.8271C60.0991 61.7544 67.4964 54.8797 79.7797 58.0296C96.3713 63.6435 99.8268 60.1894 102.303 57.7252" fill="none" stroke="currentColor" stroke-width="2" stroke-linecap="round" stroke-linejoin="round"/>
</svg>
