<?xml version="1.0" encoding="UTF-8" standalone="no"?>
<!-- Created with Inkscape (http://www.inkscape.org/) -->

<svg
   width="209.80179mm"
   height="133.23447mm"
   viewBox="0 0 209.80179 133.23447"
   version="1.1"
   id="svg1"
   xml:space="preserve"
   xmlns="http://www.w3.org/2000/svg"
   xmlns:svg="http://www.w3.org/2000/svg"><defs
     id="defs1" /><g
     id="layer1"
     transform="translate(-466.54109,-168.88119)"><g
       id="g3"
       transform="translate(139.81665,52.688801)"><path
         style="fill:none;stroke:#0f6400;stroke-width:1.977;stroke-linejoin:round;stroke-dasharray:none;stroke-opacity:1;paint-order:normal"
         d="m 382.86888,233.32211 v -37.36068 l 27.78636,-25.18463 28.30668,24.87243 v 37.36067 h -21.33407 v -21.43816 h -13.63302 v 21.6463 z"
         id="path1" /><path
         style="fill:none;stroke:#0f6400;stroke-width:1.976;stroke-linecap:round;stroke-linejoin:round;stroke-dasharray:none;stroke-opacity:1;paint-order:normal"
         d="m 327.71246,242.48016 c 6.88733,-3.46748 13.80049,-4.95322 21.02189,-5.72378 8.42841,-0.89935 16.96757,0.42375 25.39275,1.35289 8.74094,0.96396 17.25234,3.65635 26.01719,4.37089 9.19699,0.74977 18.61625,1.61447 27.6823,-0.10407 11.81085,-2.23883 25.04698,-5.98639 29.86773,-18.42017 2.43888,-6.29041 1.25519,-13.454 2.49764,-20.08526 4.66234,-24.88412 19.60165,-45.82163 29.45145,-46.6228 3.79288,-0.30851 8.48435,12.99368 -16.85914,16.33879 -3.43259,0.45307 -6.77787,-2.08988 -9.47026,-4.26682 -6.47776,-5.23761 -9.82105,-22.1674 -1.56101,-24.56022 4.14059,-1.19947 5.667,7.28944 5.71746,11.59997 0.0935,7.99237 -4.19703,16.3555 -10.09468,21.75036 -3.97013,3.63166 -10.00381,6.90888 -15.18771,5.46731 -3.09658,-0.86112 -0.94221,-6.11643 -2.80985,-8.42957 -2.86771,-3.55176 -11.71127,1.52533 -13.42488,-2.70578 -1.76988,-4.37005 3.53601,-10.17797 8.0133,-11.6557 5.67756,-1.87387 12.77817,1.55802 16.96321,5.82785 6.35062,6.47928 6.36882,17.08282 8.32548,25.91311"
         id="path2" /><path
         style="opacity:1;fill:none;stroke:#0f6400;stroke-width:1.977;stroke-linecap:round;stroke-linejoin:round;stroke-dasharray:none;stroke-opacity:1;paint-order:normal"
         d="m 425.12079,161.72281 c -8.67056,0.60588 -10.28102,-9.54405 0.10407,-14.36148 -3.00314,-12.49905 9.7811,-7.01164 10.40688,-7.90922 2.83573,-4.06736 -5.83198,-15.94859 12.07196,-9.57433 4.85463,1.72837 3.55832,-8.88882 9.43073,-11.45342 19.69903,-8.60298 22.03586,29.70552 13.46441,21.65216 -13.86053,-13.02276 35.77762,-28.53354 24.14394,4.78716 -1.15362,3.30415 8.27775,-1.99992 11.22156,2.85455 3.2198,5.3096 -4.55065,9.77834 -3.52049,11.19473 2.31522,3.18325 8.48618,3.6018 8.75537,8.76506 0.26919,5.16325 -4.73896,14.23867 -12.50184,13.50565 8.52133,16.3222 -10.52265,9.76341 -19.77305,7.28481 -8.77295,-2.35067 -15.25279,12.72588 -13.41206,21.62802 5.18994,25.09963 4.88903,40.96746 -5.94472,38.00337 -10.61164,-6.30363 4.56418,-20.40728 29.76366,-13.94521 34.03807,11.51702 41.12705,4.43093 46.20651,-0.62441"
         id="path3" /></g></g></svg>
